<svg xmlns="http://www.w3.org/2000/svg" viewBox="0 0 251.95 59.81"><title>Ativo 2</title><g id="Camada_2" data-name="Camada 2"><g id="Camada_2-2" data-name="Camada 2"><path d="M54,28.17A4.48,4.48,0,0,1,53.42,32a48.51,48.51,0,0,1-13.23,13.1,83,83,0,0,1-15.64,8.35C22,54.53,19.41,55.4,16.8,56.24c-1.72.55-3.14-1.92-3.71-2.61.78-.28,1-.32,1.55-.5,8.87-2.38,16.19-7.62,23.51-12.84A160.78,160.78,0,0,0,52.61,28.58,1.33,1.33,0,0,1,54,28.17Z" style="fill:#009338"/><path d="M5.28,28.07c-.26-1.44-.47-2.59.22-3.67C9.71,17.89,15.49,13.06,22,9.08a86.86,86.86,0,0,1,16.15-7.6A33.45,33.45,0,0,1,42.79.05c1.76-.35,2.34,1.25,3.05,2.33-1.07.44-1.79.67-2.61.94C35.55,5.81,28.9,10.18,22.37,14.75,16.87,18.61,5.87,27.69,5.28,28.07Z" style="fill:#74746a"/><path d="M28.75,4.38A62.16,62.16,0,0,0,.09,24.11a6.3,6.3,0,0,1,1.13-4.83A37.51,37.51,0,0,1,15.27,7.21,34.74,34.74,0,0,1,27.05,3.78,1.44,1.44,0,0,1,28.75,4.38Z" style="fill:#009338"/><path d="M30.81,51.54C42.19,48,51.43,41.22,59.18,32.27l.43.32c-.45,1.18-.8,2.4-1.35,3.53-1.38,2.85-3.71,4.94-6,7a35,35,0,0,1-10.67,6.75,28.12,28.12,0,0,1-9.82,2.25C31.45,52.15,31.12,52.18,30.81,51.54Z" style="fill:#74746a"/><path d="M28.23,59.79,26.8,58.5c-.27-.25.58-.28.84-.29,4.87-.74,8.78-2.71,12.76-5a98.21,98.21,0,0,0,12.27-8.69c.21-.17.41-.38.72-.24C53.45,48.66,34.57,60.38,28.23,59.79Z" style="fill:#009338"/><path d="M50.24,20.51C41.46,27.65,15.42,44,15.09,44.19c-.54.37-1.09.73-1.64,1.08h0c-1.82,1.17-3.68,2.29-5.52,3.44a1.79,1.79,0,0,1-1.65.18c-.68-1-1.72-1.73-2.15-3.18L10,41.86q11.22-7.24,22.44-14.51,7.61-4.92,15.2-9.87c.48-.31,1.15-.6,1.51.13S49.84,19.44,50.24,20.51Z" style="fill:#009338"/><path d="M56.7,23.54A93.63,93.63,0,0,1,33.12,40.78a65.48,65.48,0,0,1-13,5A2.31,2.31,0,0,1,18,45.13a9.27,9.27,0,0,0-1.24-.88s18.34-10,24.2-14a154.62,154.62,0,0,0,16.43-13.2C59,20.44,58.92,21.32,56.7,23.54Z" style="fill:#74746a"/><path d="M43.06,11.68l-1.33-.85A6.11,6.11,0,0,0,40,9.89a4.79,4.79,0,0,0-2.34.34,72,72,0,0,0-12.77,5.4A95.87,95.87,0,0,0,1.69,33.39c-1.22,1.28-.9,4.4.67,5.53A154.08,154.08,0,0,1,19.07,25.2C24.27,21.42,43.23,11.69,43.06,11.68Z" style="fill:#009338"/><path d="M52.31,6.67l-9,5.5-5.42,3.4C28.15,21.81,18.31,27.63,9.37,34.66c-.18,1.47.46,2.49,1.22,3.73L55.51,9.86A20.85,20.85,0,0,0,52.31,6.67Z" style="fill:#74746a"/><text transform="translate(73.71 42.79)" style="font-size:36.13203811645508px;fill:#74746a;font-family:Electrofied, Electrofied">Method</text></g></g></svg>