<?xml version="1.0" standalone="no"?>
<!DOCTYPE svg PUBLIC "-//W3C//DTD SVG 1.1//EN" "http://www.w3.org/Graphics/SVG/1.1/DTD/svg11.dtd">
<svg xmlns="http://www.w3.org/2000/svg">
<metadata>Copyright (C) 2018 by original authors @ fontello.com</metadata>
<defs>
<font id="methodicones" horiz-adv-x="1000" >
<font-face font-family="methodicones" font-weight="400" font-stretch="normal" units-per-em="1000" ascent="850" descent="-150" />
<missing-glyph horiz-adv-x="1000" />
<glyph glyph-name="comprashome" unicode="&#xe800;" d="M335 140a60 60 0 0 0-47 22l-47 58a60 60 0 0 0 8 85l16 13v100a42 42 0 0 0 84 0v-31l224 184h-276l139 190a56 56 0 0 1-91 66l-186-256h-117a42 42 0 0 1-42-42v-27a42 42 0 0 1 42-42h14l45-319a84 84 0 0 1 83-72h207v93a56 56 0 0 0 1 7l-19-15a60 60 0 0 0-38-14z m323 687a56 56 0 0 1-90-66l88-121 65 53a125 125 0 0 0 23 16z m5-386l18 15a42 42 0 0 1-18-15z m671-197l-48-58a23 23 0 0 0-31-3l-310 255-129 106a23 23 0 0 1-14 5 22 22 0 0 1-14-5l-107-88a42 42 0 0 1-18-15l-119-97-84-69-111-92a22 22 0 0 0-14-5 22 22 0 0 0-14 5 18 18 0 0 0-3 3l-48 58a22 22 0 0 0 3 31l76 63 113 94 34 27 136 112 47 39 66 54a90 90 0 0 0 114 0l115-94 25-21 27-22v135a22 22 0 0 0 22 23h104a22 22 0 0 0 23-23v-258l156-128a22 22 0 0 0 3-32z m-159-82v-267a45 45 0 0 0-45-45h-216a22 22 0 0 0-23 22v209a22 22 0 0 1-22 23h-134a23 23 0 0 1-23-23v-209a23 23 0 0 0-22-22h-216a45 45 0 0 0-45 45v267a22 22 0 0 0 8 17l28 24 79 64 111 92 83 68 50 41a22 22 0 0 0 14 5 23 23 0 0 0 14-5l119-98 232-191a23 23 0 0 0 8-17z" horiz-adv-x="1339" />

<glyph glyph-name="fiscalhome" unicode="&#xe801;" d="M1144 141a20 20 0 0 0 8-16v-236a40 40 0 0 0-40-39h-191a20 20 0 0 0-20 20v184a20 20 0 0 1-20 20h-118a20 20 0 0 1-20-20v-184a20 20 0 0 0-20-20h-190a40 40 0 0 0-40 40v235a20 20 0 0 0 7 16l86 70 72 60 115 95 37 30a20 20 0 0 0 12 4 21 21 0 0 0 10-3 20 20 0 0 0 3-1z m148 57l-42-51a20 20 0 0 0-15-7 20 20 0 0 0-13 4l-387 319a20 20 0 0 1-3 2 20 20 0 0 1-22-2l-37-30-66-54-35-29-96-79-72-60-81-67a20 20 0 0 0-28 3l-42 51a20 20 0 0 0 3 28l54 45h0l117 96 45 37 87 72 47 38 66 55 1 1a78 78 0 0 0 49 17 80 80 0 0 0 10-1 78 78 0 0 0 40-17l148-121v119a20 20 0 0 0 20 20h92a20 20 0 0 0 20-20v-228l137-113a20 20 0 0 0 3-28z m-930-84h-121c-3-35-5-62-9-89a128 128 0 0 0-15-44c-5-8-16-12-25-19a129 129 0 0 0-14 27 113 113 0 0 0-1 30c0 209 0 419-1 629 0 46-4 93-7 142 5 0 15 1 24 1q260 0 520 0c44 0 60-13 60-55q0-57 0-113a125 125 0 0 0 49 10c3 0 7 0 10 0q0 49 0 98c0 79-41 119-118 119-186 0-373-1-559 0-57 0-97-26-123-74-31-58-35-121-30-189h116v-43q0-268 0-536c0-81 27-107 107-108h222v61l-159 0a31 31 0 0 0-10 3c7 29 14 58 20 89h149v51a66 66 0 0 0-85 9z m-302 534c4 45 8 87 38 119l13 0 10-119z m751-686a68 68 0 0 1 44 16v-68a112 112 0 0 0-35-7q-15 0-30-1v60z m-463 457q38 4 58 24a68 68 0 0 1 21 51 66 66 0 0 1-18 47q-19 20-61 35v73a144 144 0 0 0 61-20v51c-14 8-33 12-61 13v35h-28v-36a90 90 0 0 1-56-24 70 70 0 0 1-21-51 71 71 0 0 1 16-48q17-19 61-36v-70a154 154 0 0 0-39 9 112 112 0 0 0-33 17v-53a156 156 0 0 1 72-18v-40h28z m0 103q28-12 28-30 0-24-28-28z m-28 65c-17 9-26 20-26 33 0 15 9 25 26 28z m-16-316l34 0-12-10a66 66 0 0 1-24-44c0-2 0-4 0-6-19 0-30 3-30 28s7 32 32 32z" horiz-adv-x="1296" />

<glyph glyph-name="fiscal" unicode="&#xe802;" d="M877 75h124c6-64-6-121-42-171a120 120 0 0 0-95-52c-47-1-95-2-142-2q-243 0-485 0c-84 0-112 28-112 113v610h-123c-5 72-1 138 32 199 27 51 69 78 129 78 197-1 393 0 589 0 82 0 124-43 124-125q1-302 0-603z m-623-1h557a109 109 0 0 1 4 18c0 212 0 425 0 638 0 44-18 58-64 58h-547c-11 0-21-1-26-1 3-51 7-101 8-150 1-221 0-442 0-663a121 121 0 0 1 1-31 136 136 0 0 1 16-28c9 7 21 11 26 20a134 134 0 0 1 15 46c5 28 6 57 10 93z m39-157a32 32 0 0 1 10-4c184 0 368 0 551 1 48 0 81 44 78 97h-617c-8-33-15-63-22-94z m-230 720h65l-11 126h-14c-31-34-36-78-40-126z m684-460h-78q-174 0-348 0c-22 0-35 2-34 29 0 26 7 35 33 34 127-1 253 0 380 0 55 0 55 0 47-63z m-192 418v57h189v-57z m1-81h187v-58h-187z m-1-191v57h189c1-18 2-36 3-57z m-188 73v-44h-29v43a164 164 0 0 0-77 18v56a120 120 0 0 1 35-17 162 162 0 0 1 42-10v74q-48 18-65 38a75 75 0 0 0-17 50 74 74 0 0 0 22 54 95 95 0 0 0 59 26v37h30v-36c28-2 49-6 63-14v-55a151 151 0 0 1-63 21v-77q44-16 63-36a70 70 0 0 0 19-50 71 71 0 0 0-21-54q-21-20-61-24z m-29 177v64c-19-4-28-13-28-30-1-14 9-25 28-34z m29-69v-61q29 5 29 29 0 20-29 32z" horiz-adv-x="1002" />

<glyph glyph-name="iconemethod" unicode="&#xe803;" d="M903 379a75 75 0 0 0-10-64 811 811 0 0 0-221-219 1388 1388 0 0 0-261-140c-43-18-86-32-130-46-29-10-53 32-62 43 13 5 17 6 26 9 148 40 271 127 393 214a2688 2688 0 0 1 242 196 22 22 0 0 0 23 7z m-815 2c-4 24-8 43 4 61 70 109 167 190 276 256a1452 1452 0 0 0 270 127 559 559 0 0 0 77 24c30 6 40-21 51-39-17-7-29-11-43-15-129-42-240-115-349-192-92-64-276-216-286-222z m393 396a1039 1039 0 0 1-479-330 105 105 0 0 0 18 81 627 627 0 0 0 235 202 581 581 0 0 0 197 57 24 24 0 0 0 29-10z m34-789c190 60 345 173 475 323l7-6c-8-20-14-40-23-59-23-48-62-82-100-117a585 585 0 0 0-179-113 470 470 0 0 0-164-37c-5-1-11-1-16 9z m-43-138l-24 22c-4 4 10 5 14 5 82 12 147 45 214 83a1642 1642 0 0 1 205 146c3 3 7 6 12 4 1-74-315-270-421-260z m368 657c-147-119-582-393-588-396-9-6-18-12-27-18h0c-31-19-62-38-92-57a30 30 0 0 0-28-3c-11 16-29 29-36 53l98 64q188 121 375 243 128 82 255 165c8 5 19 10 25-2s11-31 18-49z m108-51a1566 1566 0 0 0-394-288 1095 1095 0 0 0-218-83 39 39 0 0 0-35 10 155 155 0 0 1-21 15s307 167 405 234a2585 2585 0 0 1 275 221c27-57 25-71-12-109z m-228 199l-22 14a102 102 0 0 1-29 16 80 80 0 0 1-39-6 1204 1204 0 0 1-214-90 1603 1603 0 0 1-388-297c-20-22-15-74 12-93a2576 2576 0 0 0 279 230c87 63 404 226 401 226z m155 84l-151-92-90-57c-163-105-328-202-477-319-3-25 7-42 20-63l751 477a349 349 0 0 1-53 54z" horiz-adv-x="997" />

<glyph glyph-name="dashhome" unicode="&#xe804;" d="M380 744a17 17 0 0 0 15 20 346 346 0 0 0 346-193 46 46 0 0 1-5-21v-59l-100 82a104 104 0 0 1-132 0l-87-72z m649-554l-41-50a19 19 0 0 0-27-3l-204 168-174 144a20 20 0 0 1-13 4 19 19 0 0 1-12-4l-268-221-110-91a19 19 0 0 0-12-4 19 19 0 0 0-15 7l-10 11-31 38a19 19 0 0 0 2 28l206 169 102 85 99 81a77 77 0 0 0 98 0l144-119v117a19 19 0 0 0 19 19h90a19 19 0 0 0 20-19v-223l134-111a19 19 0 0 0 3-26z m-144-56a20 20 0 0 0 7-15v-230a38 38 0 0 0-39-39h-186a19 19 0 0 0-20 19v180a19 19 0 0 1-19 20h-116a19 19 0 0 1-19-20v-180a19 19 0 0 0-19-19h-187a39 39 0 0 0-38 39v230a19 19 0 0 0 0 4 19 19 0 0 0 7 11l302 249a19 19 0 0 0 12 4 20 20 0 0 0 12-4l154-127z m-551 298l-237-194a46 46 0 0 1-17-37 347 347 0 0 0-23 412 17 17 0 0 0 25 4z m-258 298a345 345 0 0 0 198 120 18 18 0 0 0 21-15l50-325-266 195a17 17 0 0 0-3 25z" horiz-adv-x="1033" />

<glyph glyph-name="loading" unicode="&#xe805;" d="M668 360a30 30 0 0 0-4-25 320 320 0 0 0-87-87 546 546 0 0 0-103-55c-17-7-34-12-51-18-12-3-21 13-24 17 5 2 7 2 10 4 58 15 107 50 155 84a1083 1083 0 0 1 95 78 9 9 0 0 0 9 2z m-321 1c-2 9-3 17 1 24a328 328 0 0 0 109 101 571 571 0 0 0 107 50 216 216 0 0 0 30 9c12 3 16-8 20-15-7-3-12-4-17-6-51-16-94-45-137-76-37-25-109-85-113-87z m155 156a410 410 0 0 1-189-130 42 42 0 0 0 7 32 248 248 0 0 0 93 80 231 231 0 0 0 77 22 10 10 0 0 0 12-4z m14-311c74 24 135 68 186 127l3-2c-3-8-5-16-9-23a157 157 0 0 0-39-46 229 229 0 0 0-71-45 185 185 0 0 0-64-15c-3 0-5 0-6 4z m-18-54c-3 2-7 6-9 8s4 2 5 2a232 232 0 0 1 84 33 650 650 0 0 1 81 58c1 1 3 2 5 1 0-29-124-106-166-102z m145 259c-58-47-229-155-231-156l-11-8h0c-12-8-24-15-37-22a12 12 0 0 0-11-1 66 66 0 0 0-14 21c13 8 26 17 39 25q74 48 148 96 50 32 100 65c3 2 8 4 10-1s5-12 7-19z m43-20a616 616 0 0 0-156-114 436 436 0 0 0-85-33 15 15 0 0 0-15 5 86 86 0 0 1-8 5s121 67 160 93a1029 1029 0 0 1 108 86c11-22 11-28-4-42z m-90 78l-9 6a40 40 0 0 1-11 6 33 33 0 0 1-15-2 488 488 0 0 1-85-36 631 631 0 0 1-153-117 28 28 0 0 1 4-37 1007 1007 0 0 0 111 91c34 25 159 89 158 89z m61 33l-59-36-36-23c-65-41-129-79-188-126a37 37 0 0 1 8-24c99 63 197 125 296 188a140 140 0 0 1-21 21z m-157 131a283 283 0 1 0-282-283 283 283 0 0 0 282 283m0 217a500 500 0 1 1 500-500 501 501 0 0 1-500 500z" horiz-adv-x="1000" />

<glyph glyph-name="contasareceber" unicode="&#xe806;" d="M704 162a57 57 0 0 0 12 63l244 242a57 57 0 0 0 23 14 500 500 0 1 1-108-462v108h-118a57 57 0 0 0-53 35z m-58-35q-42-40-118-48v-85h-57v82a317 317 0 0 0-147 36v108q22-19 67-34a310 310 0 0 1 80-18v142q-91 34-124 73a144 144 0 0 0-34 96 142 142 0 0 0 43 105q44 43 115 50v72h57v-71q82-4 122-26v-106a295 295 0 0 1-122 41v-147q85-31 122-71a135 135 0 0 0 37-95q0-65-41-104z m-118 161v-118q55 8 55 55 0 38-55 63z m-111 198q0-40 54-67v124q-54-10-54-57z m844-284l-243 242a25 25 0 0 1-18 7 24 24 0 0 1-10-2 25 25 0 0 1-8-5l-243-242a25 25 0 0 1 18-43h150v-246a26 26 0 0 1 26-26h135a26 26 0 0 1 25 26v246h150a25 25 0 0 1 18 43z" horiz-adv-x="1269" />

<glyph glyph-name="payments" unicode="&#xe807;" d="M905 194l222 82 6 3a40 40 0 0 1 24 51l-72 193-75 202-11 28a40 40 0 0 1-51 24l-35-13-222-83-665-247a40 40 0 0 1-23-52l157-423a40 40 0 0 1 52-24l398 149 149 55z m91 135a106 106 0 0 0 69 95l37-100-48-18-51-19a106 106 0 0 0-7 42z m-902-40l-37 99 100 38a106 106 0 0 0-63-137z m111-299l-37 99a106 106 0 0 0 137-62z m430 217a113 113 0 0 0-39-7c-58 0-116 43-141 110a184 184 0 0 0-11 78c2 33 14 63 34 86a114 114 0 0 0 46 32 113 113 0 0 0 39 7c39 0 78-20 107-52a186 186 0 0 0 34-59c31-82 0-170-69-195z m-104 123c-1 0-2 0-3 0a51 51 0 0 0-23 6l0 0-1 0-11 6a48 48 0 0 0-21 18 162 162 0 0 1 10-40 159 159 0 0 1 27-47 44 44 0 0 0 4 17c3 8 10 18 24 24z m149-14c-4 9-9 13-16 13a25 25 0 0 1-9-2l-24-9-49 132c-3 9-9 13-16 13a26 26 0 0 1-9-2l-19-7c-9-3-15-8-19-17l-22-44c-6-11-3-20 8-26l13-6a23 23 0 0 1 10-3c6 0 12 4 15 10a56 56 0 0 1 2 8l0 0s3-9 6-17l23-62-24-9c-12-4-15-13-11-24l5-14c3-9 9-13 16-13a25 25 0 0 1 9 2l105 39c11 4 15 13 11 24z m-83 162a52 52 0 0 0 11-18l39-105a52 52 0 0 0 17 2 43 43 0 0 0 23-6 161 161 0 0 1-9 42c-16 41-46 72-81 85z m277 302l-161 64a80 80 0 0 1-103-44l-30-74 72-29z m579-234l-408 165 76-203 347-139 29 74a80 80 0 0 1-44 103z m-310-294l-199-74 70-28a20 20 0 0 0 11-26l-25-62a20 20 0 0 0-26-11l-178 72-147-55 526-212a80 80 0 0 1 104 44l109 271-226 91a68 68 0 0 0-19-10z" horiz-adv-x="1503" />

<glyph glyph-name="placa" unicode="&#xe808;" d="M156 385c-1 2-1 4-2 6 0 1 0 3 0 5-1 1-1 2-1 3h-1c0-2-1-4-1-8-1-3-2-7-3-11l-13-50h34l-12 49c-1 2-1 4-1 6z m189-16c2 1 4 2 6 4 2 2 3 3 4 5 1 3 2 5 2 7 0 6-3 10-7 13-5 3-11 4-19 4h-11v-34h16c3 0 6 0 9 1z m11-42c-2 1-4 2-6 4-3 0-5 1-9 1h-21v-37h18c4 0 7 1 10 2 3 0 5 2 8 3 2 2 3 4 4 6 2 3 2 5 2 8 0 3 0 6-1 8-2 1-3 3-5 5z m831 23c-3-5-6-9-9-13-3-4-6-9-8-12h31v52c-1-4-4-8-6-13-3-5-5-9-8-14z m21 500h-1083c-69 0-125-56-125-125v-750c0-69 56-125 125-125h1083c69 0 125 56 125 125v750c0 69-56 125-125 125z m-1021-591l-8 33h-53l-9-33h-58l62 179h67l58-179h-59z m228 33c-2-7-7-13-12-17-6-5-13-9-22-12s-20-4-33-4h-82v179h76c24 0 42-4 54-11 12-7 18-18 18-33 0-4-1-8-2-11-2-4-3-7-5-10-3-3-5-5-8-7-2-2-5-4-8-5-3-2-6-3-8-4-3 0-6-1-8-2v0c7-1 14-3 19-5 6-3 10-6 14-10 4-4 6-8 8-13 3-4 3-9 3-13 0-8-1-15-4-22z m161 93c-1 2-4 3-6 4-3 1-6 2-9 3-4 1-7 2-11 2-4 1-8 1-12 1-7 0-13-1-18-3-6-1-11-4-16-8-4-4-7-8-10-14-3-6-4-13-4-22 0-7 1-13 3-19 2-5 5-10 9-14 4-4 9-7 15-9 6-3 12-4 20-4 4 0 8 0 12 1 4 1 7 2 11 3 3 1 6 2 9 3 3 1 5 2 7 3v-48c-2 0-5-1-8-2-3-1-7-2-11-3-5-1-10-1-15-2-5 0-11-1-17-1-16 0-30 3-42 7-11 5-21 12-28 20-8 8-13 17-17 28-4 10-5 22-5 34 0 14 2 27 6 39 5 11 12 22 20 30 8 9 19 15 31 20 12 5 26 7 41 7 10 0 19-1 26-2 8-1 14-2 18-4v-50z m96-77h-68v36h68v-36z m121-49h-53v129c-3-2-6-4-9-5-4-1-7-2-10-3-3-1-6-2-10-3-3 0-7-1-11-1v40c6 0 11 2 16 3 5 1 10 3 15 5s10 5 15 8c5 2 10 6 16 9h31v-182z m158 0h-126v14c0 9 1 17 3 24 2 6 5 12 9 18 3 5 8 11 13 16 6 4 12 10 19 15 4 4 8 7 12 10 3 2 6 5 8 8 3 3 5 6 6 9 1 3 2 6 2 9 0 5-2 10-5 13s-9 5-17 5c-4 0-8-1-12-2-4-1-7-2-11-3s-6-3-10-5c-3-2-5-4-8-6v43c3 2 6 4 10 5 3 2 7 3 12 4 4 2 9 3 14 3 6 1 12 2 18 2 11 0 20-2 28-4 8-3 14-7 19-12 5-5 9-10 11-17 2-6 3-13 3-20 0-8-1-15-2-21-2-5-5-10-8-15-4-5-8-9-12-13s-11-8-17-12c-4-3-7-5-11-7-3-3-7-5-9-7-3-2-5-4-6-6-2-2-3-4-3-6h70v-42z m146 29c-2-7-7-12-13-17-6-5-13-9-22-11-9-3-20-4-32-4-5 0-10 0-15 1-5 0-9 1-13 1-4 1-8 2-11 3-3 1-6 2-9 3v42c3-2 6-4 9-5 3-1 6-2 10-3 3-1 7-2 11-2 3-1 7-1 11-1 4 0 9 0 12 1 3 1 6 2 8 4 2 1 4 3 5 6 1 2 1 4 1 6 0 4-1 7-3 9-2 2-4 4-7 6s-7 2-11 3c-3 1-7 1-11 1h-17v39h15c10 0 18 1 22 5 5 3 8 7 8 12 0 4-2 8-6 11-4 3-9 4-17 4-3 0-6 0-10-1-3 0-6-1-9-2-3-1-6-2-8-3-3-1-5-2-7-4v40c2 1 5 2 8 3 3 1 7 2 11 3 3 1 8 2 12 2 4 1 9 1 14 1 13 0 23-1 31-4 8-3 15-7 20-11 4-5 8-10 10-15 2-5 3-11 3-16 0-5-1-10-2-14-2-5-4-9-7-13-3-4-6-7-10-10-5-2-10-5-16-6v0c7-1 13-3 18-6 5-2 9-6 12-9 3-4 5-8 7-13 2-5 2-9 2-14 1-8-1-15-4-22z m177 2h-26v-31h-47v31h-75v36c6 8 13 16 20 26 7 9 13 18 20 28 6 10 12 20 17 29 6 10 11 20 14 29h51v-113h25v-35z" horiz-adv-x="1333" />

<glyph glyph-name="report" unicode="&#xe809;" d="M750 612v-12h-250v250h12a47 47 0 0 0 33-14l191-191a47 47 0 0 0 14-33z m-266-74a47 47 0 0 0-46 46v266h-391a47 47 0 0 1-47-47v-906a47 47 0 0 1 47-47h656a47 47 0 0 1 47 47v641z m-355-259h492v-68h-492z m496-208h-493v68h493z m0 279h-493v68h493z" horiz-adv-x="750" />

<glyph glyph-name="programa" unicode="&#xe80a;" d="M1268 850h-1202a66 66 0 0 1-66-66v-868a66 66 0 0 1 66-66h1202a66 66 0 0 1 65 66v868a66 66 0 0 1-65 66z m-736-559l-351-160v89l251 101v1l-251 108v89l351-167z m323-300h-320v45h320z m172 717a12 12 0 0 0-12-12h-88a12 12 0 0 0-11 12v88a12 12 0 0 0 11 11h88a12 12 0 0 0 12-11z m128 0a12 12 0 0 0-12-12h-88a12 12 0 0 0-12 12v88a12 12 0 0 0 12 11h88a12 12 0 0 0 12-11z m132 0a12 12 0 0 0-12-12h-88a12 12 0 0 0-12 12v88a12 12 0 0 0 12 11h88a12 12 0 0 0 12-11z" horiz-adv-x="1333" />

<glyph glyph-name="userdesconto" unicode="&#xe80b;" d="M618 184a303 303 0 0 0-77 202 299 299 0 0 0 59 179h-172a56 56 0 0 0-55 56v229h-343a30 30 0 0 1-30-30v-825a30 30 0 0 1 30-30h361v4a200 200 0 0 0 36 116 98 98 0 0 0-59 29c-18 19-28 45-28 77 0 34 10 62 30 82a104 104 0 0 0 79 32h0c30 0 55-10 73-29s27-45 27-78a126 126 0 0 0-4-32z m-509 195c0 34 10 62 29 83a104 104 0 0 0 79 31h0c31 0 56-10 74-29s26-45 26-78-10-62-29-82a104 104 0 0 0-74-31h-4a98 98 0 0 0-73 30c-19 19-29 45-28 76z m137-289h-94l259 398h95z m360 296a236 236 0 1 0 16-88 237 237 0 0 0-16 88z m622-416v-58a62 62 0 0 0-62-62h-648a62 62 0 0 0-62 62v58a137 137 0 0 0 104 132l105 26a317 317 0 0 1 179-55h0a304 304 0 0 1 175 55l106-26a137 137 0 0 0 103-132z m-571 678h-201v202a30 30 0 0 0 19-8l174-175a30 30 0 0 0 8-19z m-420-264c0-39-16-39-24-39a20 20 0 0 0-15 5c-6 6-8 16-8 32 0 39 17 39 25 39h0a17 17 0 0 0 13-4c6-5 9-17 9-33z m232-188v-1c0-39-16-39-24-39a21 21 0 0 0-16 5c-5 6-8 17-8 32 0 40 17 40 25 40h0a18 18 0 0 0 15-7 49 49 0 0 0 8-30z" horiz-adv-x="1228" />

<glyph glyph-name="cartaofidelidadehome" unicode="&#xe80c;" d="M836 850h-749a87 87 0 0 1-87-87v-518a87 87 0 0 1 87-87h364v36l-8-6a76 76 0 0 0-107 10l-53 65a75 75 0 0 0-17 39h-113a38 38 0 0 0-37 38v29a76 76 0 0 0 57 73l56 15a152 152 0 0 1 152-15l215 178a22 22 0 0 0-19 21v15a22 22 0 0 0 21 21h68l160 132a151 151 0 0 0 54 29 86 86 0 0 1-44 12z m-519-396a126 126 0 1 0 126 126 126 126 0 0 0-126-126z m1018-232a26 26 0 0 0 9-19v-302a51 51 0 0 0-51-51h-244a25 25 0 0 0-25 25v236a25 25 0 0 1-26 26h-152a25 25 0 0 1-25-26v-236a25 25 0 0 0-25-25h-244a51 51 0 0 0-51 51v302a25 25 0 0 0 9 19l203 167 70 58 123 101a26 26 0 0 0 16 6h0a26 26 0 0 0 16-6z m188 73l-53-65a25 25 0 0 0-36-3l-495 408a26 26 0 0 1-17 5h0a26 26 0 0 1-16-5l-101-84-57-47-70-58-70-58-197-161a25 25 0 0 0-36 3l-53 65a25 25 0 0 0-5 7 25 25 0 0 0 8 29l136 112 115 95 29 24 70 57 70 58 113 93a101 101 0 0 0 59 23l5 0a101 101 0 0 0 65-23l188-155v153a25 25 0 0 0 25 25h118a25 25 0 0 0 26-25v-292l176-145a25 25 0 0 0 3-36z" horiz-adv-x="1529" />

<glyph glyph-name="userdevedor" unicode="&#xe80d;" d="M659 673a288 288 0 0 1-97-50h-109v227h11a42 42 0 0 0 30-12z m-208-276a286 286 0 0 0 56 170h-68a43 43 0 0 0-42 42v241h-354a42 42 0 0 1-43-42v-822a42 42 0 0 1 42-43h260v39a188 188 0 0 0 35 110 234 234 0 0 0 14 19c6 6 19 16 19 16a187 187 0 0 0 74 38l96 24a287 287 0 0 0-89 208z m-168 356l35-406-105-13-66 402z m60-578a76 76 0 0 0-52-26 77 77 0 0 0-56 13 64 64 0 0 0-28 45 62 62 0 0 0 16 51 79 79 0 0 0 51 26 77 77 0 0 0 56-12 63 63 0 0 0 27-46 64 64 0 0 0-14-51z m643 222a249 249 0 1 0-249 248h1a248 248 0 0 0 248-248z m149-415v-58a75 75 0 0 0-74-74h-646a75 75 0 0 0-75 74h0v58a149 149 0 0 0 113 145l111 27a304 304 0 0 1 175-55 292 292 0 0 1 173 56l110-28a149 149 0 0 0 113-145z" horiz-adv-x="1135" />

<glyph glyph-name="userreport" unicode="&#xe80e;" d="M645 665c3 0 6 0 9 0a35 35 0 0 1-3 4l-169 169a41 41 0 0 1-29 12h-11v-221h65a278 278 0 0 0 138 36z m-288-509l97 25a279 279 0 0 0-16 392h-10a42 42 0 0 0-41 42v235h-345a41 41 0 0 1-42-41v-802a41 41 0 0 1 42-41h177v13a183 183 0 0 0 138 177z m134 418a243 243 0 0 1 154-432c6 0 12 0 18 1a243 243 0 1 1-173 431z m512-505a146 146 0 0 1-79 52l-109 27a286 286 0 0 0-152-54c-5 0-11-1-16-1a298 298 0 0 0-172 55l-109-27a146 146 0 0 1-111-142v-56a73 73 0 0 1 74-73h632a73 73 0 0 1 73 73v56a146 146 0 0 1-31 90z" horiz-adv-x="1034" />

<glyph glyph-name="rotinapreco" unicode="&#xe80f;" d="M1001 826v-397a24 24 0 0 0-24-24h-398a24 24 0 0 0-23 24v41a248 248 0 0 0 55-23l36-20v116l135-6a349 349 0 1 1-59-457 24 24 0 0 0 33-1l67-68a24 24 0 0 0-1-34 492 492 0 1 0 45 684l-8 164a24 24 0 0 0 24 25h94a24 24 0 0 0 24-24z m-490-787v71q70 7 108 40a112 112 0 0 1 37 88 109 109 0 0 1-33 81q-34 33-112 59v125a307 307 0 0 0 45-8 271 271 0 0 0 67-26v88q-37 20-112 23v59h-52v-61q-65-6-104-42a115 115 0 0 1-40-88 117 117 0 0 1 30-81q31-33 114-62v-120a304 304 0 0 0-73 16 215 215 0 0 0-61 28v-91a310 310 0 0 1 134-30v-69z m0 247q51-20 51-52 0-40-51-47z m-101 168q0 39 49 47v-104q-49 23-49 57z" horiz-adv-x="1001" />

<glyph glyph-name="outrasrotinas" unicode="&#xe810;" d="M885 786l-69-70a482 482 0 0 1-808-258 24 24 0 0 1 23-28h112a24 24 0 0 1 23 18 327 327 0 0 0 540 159l-81-82a47 47 0 0 1 33-79h260a47 47 0 0 1 47 46v261a47 47 0 0 1-80 33z m48-516h-111a24 24 0 0 1-23-17 327 327 0 0 0-540-159l81 81a47 47 0 0 1-33 80h-260a47 47 0 0 1-47-47v-261a47 47 0 0 1 80-33l69 70a482 482 0 0 1 807 258 24 24 0 0 1-23 28z m-628 29a69 69 0 0 1 1 102 82 82 0 0 1-57 20 85 85 0 0 1-57-20 64 64 0 0 1-23-51 66 66 0 0 1 22-50 79 79 0 0 1 56-21 85 85 0 0 1 58 20z m238 0a69 69 0 0 1 1 102 82 82 0 0 1-57 20 85 85 0 0 1-57-20 64 64 0 0 1-23-51 66 66 0 0 1 22-50 79 79 0 0 1 56-21 85 85 0 0 1 58 20z m238 0a69 69 0 0 1 1 102 81 81 0 0 1-57 20 85 85 0 0 1-57-20 64 64 0 0 1-23-51 66 66 0 0 1 22-50 79 79 0 0 1 56-21 85 85 0 0 1 58 20z" horiz-adv-x="965" />

<glyph glyph-name="franquias" unicode="&#xe811;" d="M1001 297v-245c0-12-10-22-22-22h-417c-12 0-22 10-22 22v360c0 12 10 21 22 21h100c12 0 22-9 22-21 0 0 0 0 0 0v-173h6l24 16 0 0 15 9 0 0 23 15 0 0 57 36c3 2 7 3 11 3 12 0 22-9 22-21 0 0 0 0 0 0v-62l125 80c3 2 7 3 11 3 13 0 23-9 23-21 0 0 0 0 0 0z m-439 165c-27 0-50-23-50-50v-145h-23v30c0 27-23 50-50 50-10 0-19-3-27-8l-82-53v10c0 28-22 50-50 50-5 0-10-1-16-3v305c0 12 10 22 22 22h101c11 0 21-10 21-22 0 0 0 0 0 0v-177l125 80c3 2 7 3 11 3 12 0 22-10 22-21v-62l125 79c3 3 7 4 11 4 12 0 22-10 22-22 0 0 0 0 0 0v-239l-13-8v127c0 27-22 50-50 50h-99z m-102-165v-245c0-12-10-22-21-22h-417c-12 0-22 10-22 22v360c0 12 10 21 22 21h100c12 0 22-9 22-21 0 0 0 0 0 0v-177l92 59 14 9 14 9 5 3c3 2 7 3 11 3 12 0 22-10 22-22 0 0 0 0 0 0v-58h6l22 15 22 14 75 48c3 2 8 3 11 3 12 0 22-10 22-21 0 0 0 0 0 0z" horiz-adv-x="1000" />

<glyph glyph-name="pagamento" unicode="&#xe812;" d="M885 269h-2v135a82 82 0 0 1-83 82h-106l132 127a24 24 0 0 1 0 34l-189 196a24 24 0 0 1-17 7 24 24 0 0 1-16-7l-333-321-38-36h-50l38 36h-139a82 82 0 0 1-82-82v-508a82 82 0 0 1 82-82h719a82 82 0 0 1 82 82v115h3c35 0 63 30 63 68v85c0 38-28 69-64 69z m-132 407l45-46-46-44a64 64 0 0 0 1 90z m-133 139l44-46a64 64 0 0 0-90 1z m-33-329h-31l16 16a10 10 0 0 1 0 16l-6 6a12 12 0 0 1-8 5 12 12 0 0 1-8-4l-11-11-59 61a12 12 0 0 1-8 4 12 12 0 0 1-8-4l-9-8a19 19 0 0 1-6-15l-2-29a10 10 0 0 1 11-12l8-1h1a10 10 0 0 1 11 10 39 39 0 0 1-1 5l0 0s3-4 7-8l28-29-3-2h-80c-23 36-21 80 6 105a72 72 0 0 0 50 20 104 104 0 0 0 74-33c26-27 36-63 28-92z m316-371c0-12-8-22-17-22h-218a51 51 0 0 0-38 18 70 70 0 0 0-18 47v3c0 34 24 62 53 62h220c10 0 18-10 18-23z" horiz-adv-x="949" />

<glyph glyph-name="userreport2" unicode="&#xe813;" d="M645 666c3 0 6 0 9 0a24 24 0 0 1-3 3l-169 169a42 42 0 0 1-29 12h-11v-221h65a278 278 0 0 0 138 37z m-288-509l97 24c-4 4-8 8-12 12h-341v49h304a276 276 0 0 0-40 142h-264v48h268a277 277 0 0 0 60 131h-328v49h286c0 1 0 2 0 3v235h-345a41 41 0 0 1-42-41v-802a41 41 0 0 1 42-41h177v13a182 182 0 0 0 138 178z m199 455a242 242 0 0 1-65-38c-4-4-8-7-12-11a242 242 0 0 1-73-131 246 246 0 0 1-4-46 17 17 0 0 1 0-2 243 243 0 0 1 243-242c6 0 12 0 18 1a243 243 0 1 1-107 469z m447-543a146 146 0 0 1-79 52l-109 27a285 285 0 0 0-152-54c-5 0-11-1-17-1a297 297 0 0 0-172 55l-108-27a146 146 0 0 1-110-142v-56a73 73 0 0 1 73-73h632a73 73 0 0 1 73 73v56a146 146 0 0 1-31 90z" horiz-adv-x="1034" />

<glyph glyph-name="reportlapis" unicode="&#xe814;" d="M916 314l-58-58a15 15 0 0 0-11-4 15 15 0 0 0-10 4l-102 102-37 37a15 15 0 0 0 0 21l37 38 20 20a60 60 0 0 0 86 0l75-75a60 60 0 0 0 0-85z m-181-13l-66 66a15 15 0 0 1-10 4 15 15 0 0 1-11-4l-329-329-27-152a30 30 0 0 1 30-35 33 33 0 0 1 5 0l112 20 41 7 255 255 74 73a15 15 0 0 1 0 21z m-273-386l-81-14-39 39 14 81h46v-60h60z m203 344l-105-105-88-88a18 18 0 0 0-12-5 18 18 0 0 0-16 26 16 16 0 0 0 3 4l63 63 70 70 29 29 31 31a18 18 0 0 0 25-25z m70 346h-245v245h12a46 46 0 0 0 32-13l188-188a46 46 0 0 0 13-32z m-194-735l194 194v-148a46 46 0 0 0-46-46z m-242 217l-15-15-11-11-3-15-26-152a77 77 0 0 1-1-24h-197a46 46 0 0 0-46 46v888a46 46 0 0 0 46 46h383v-260a46 46 0 0 1 46-46h260v-23a107 107 0 0 1-14-12l-58-58a64 64 0 0 1-18-32 63 63 0 0 1-32-18l0 0v26h-483v-67h442l-70-70h-376v-66h309l-70-70h-235v-67z" horiz-adv-x="934" />

<glyph glyph-name="reportmoney" unicode="&#xe815;" d="M750 612v-12h-250v250h12a47 47 0 0 0 33-14l191-191a47 47 0 0 0 14-33z m-266-74a47 47 0 0 0-46 46v266h-391a47 47 0 0 1-47-47v-906a47 47 0 0 1 47-47h656a47 47 0 0 1 47 47v641z m-373 125q-14 17-14 41a60 60 0 0 0 18 44q18 19 49 22v30h24v-30q35-1 52-11v-45a125 125 0 0 1-52 18v-63q36-13 52-30a57 57 0 0 0 15-40q0-28-17-45t-50-20v-36h-24v35a135 135 0 0 0-63 15v46q10-8 29-15a132 132 0 0 1 34-7v60q-39 14-53 31z m514-643h-510v66h510z m0 159h-510v66h510z m0 160h-510v66h510z m-461 392v-52q-23 11-23 28 0 20 23 24z m47-135q0-20-23-23v50q23-11 23-27z" horiz-adv-x="750" />
</font>
</defs>
</svg>
